<?xml version="1.0" standalone="no"?>
<!DOCTYPE svg PUBLIC "-//W3C//DTD SVG 20010904//EN"
 "http://www.w3.org/TR/2001/REC-SVG-20010904/DTD/svg10.dtd">
<svg version="1.0" xmlns="http://www.w3.org/2000/svg"
 width="1128.000000pt" height="1128.000000pt" viewBox="0 0 1128.000000 1128.000000"
 preserveAspectRatio="xMidYMid meet">
<metadata>
Created by potrace 1.14, written by Peter Selinger 2001-2017
</metadata>
<g transform="translate(0.000000,1128.000000) scale(0.100000,-0.100000)"
fill="#000000" stroke="none">
<path d="M5467 10714 c-1 -1 -66 -4 -144 -8 -78 -3 -148 -8 -155 -10 -7 -3
-42 -7 -78 -11 -184 -17 -480 -68 -714 -124 -647 -155 -1338 -476 -1861 -865
-366 -272 -746 -651 -1007 -1003 -430 -579 -726 -1267 -847 -1973 -11 -63 -22
-142 -26 -175 -4 -33 -8 -67 -10 -75 -2 -8 -7 -53 -10 -100 -3 -47 -9 -105
-11 -130 -3 -25 -8 -757 -11 -1627 l-5 -1582 265 -262 c146 -144 281 -273 300
-286 27 -19 43 -23 64 -19 27 6 197 154 418 365 104 99 352 331 376 352 10 9
80 74 155 145 75 71 145 136 156 145 10 9 85 79 165 155 142 134 273 258 318
299 24 23 133 125 280 264 177 167 335 323 350 344 42 60 26 80 -370 481 -248
251 -239 249 -395 110 -338 -301 -611 -548 -730 -660 -96 -92 -130 -118 -130
-102 -1 7 0 382 0 833 1 1024 2 1060 55 1341 244 1287 1153 2304 2455 2745
207 70 517 147 700 173 162 23 208 28 300 35 130 11 639 11 776 1 336 -26 739
-119 1079 -251 60 -23 193 -84 295 -135 1133 -567 1849 -1699 2011 -3179 36
-329 38 -862 4 -1105 -24 -171 -52 -318 -91 -474 -145 -580 -410 -1099 -757
-1481 -368 -405 -777 -672 -1302 -852 -268 -92 -561 -151 -970 -197 -61 -7
-1094 -15 -2729 -21 l-1229 -4 -36 -29 c-20 -16 -47 -49 -61 -73 l-24 -44 -2
-365 c0 -201 2 -411 5 -467 7 -115 16 -134 91 -191 l43 -33 1996 4 c1098 2
2007 6 2021 9 14 4 61 9 105 13 138 11 417 54 592 90 773 159 1422 467 1994
945 219 183 528 519 682 740 357 512 595 1025 747 1604 36 137 89 389 104 491
3 22 8 51 11 65 10 57 34 282 42 400 14 191 6 835 -12 929 -1 9 -6 57 -9 106
-17 221 -80 597 -146 873 -111 459 -245 833 -435 1207 -484 955 -1194 1674
-2102 2128 -594 298 -1332 491 -1960 513 -153 5 -582 11 -586 8z"/>
<path d="M1158 1879 c-264 -40 -469 -219 -543 -474 -18 -64 -25 -202 -13 -273
22 -126 81 -235 183 -337 129 -129 251 -182 440 -192 85 -4 125 -1 175 12 107
28 241 103 310 174 211 218 249 551 91 787 -95 141 -237 247 -387 288 -69 18
-187 25 -256 15z"/>
</g>
</svg>
