<?xml version="1.0" encoding="utf-8"?>
<svg id="f8b6a39e-83da-4016-9016-ff4c8b42d6ea" data-name="Layer 1" width="826" height="541" viewBox="0 0 535.697 471.447" xmlns="http://www.w3.org/2000/svg">
  <path d="M 509.01 452.824 L 510.235 452.8 C 509.761 439.18 508.308 425.613 505.887 412.202 C 500.59 383.489 491.782 364.632 479.708 356.154 L 479.005 357.157 C 507.21 376.96 508.996 452.067 509.01 452.824 Z" fill="#f1f1f1"/>
  <path d="M 493.699 452.531 L 494.924 452.507 C 494.897 451.15 494.132 419.18 481.546 410.344 L 480.842 411.346 C 492.921 419.826 493.693 452.205 493.699 452.531 Z" fill="#f1f1f1"/>
  <circle cx="472.037" cy="351.143" r="6.125" fill="#f1f1f1"/>
  <circle cx="475.07" cy="403.815" r="6.125" fill="#f1f1f1"/>
  <path d="M 496.554 360.939 C 495.94 365.664 496.577 370.467 498.403 374.867 C 504.915 367.588 506.547 357.164 502.571 348.243 C 499.488 351.875 497.413 356.253 496.554 360.939 Z" fill="#f1f1f1"/>
  <path d="M 476.534 378.795 C 481.079 380.223 485.919 380.432 490.571 379.401 C 484.538 371.72 474.558 368.297 465.08 370.658 C 468.12 374.326 472.069 377.132 476.534 378.795 Z" fill="#f1f1f1"/>
  <path d="M 476.308 425.441 C 479.494 426.441 482.886 426.588 486.147 425.865 C 481.918 420.482 474.923 418.082 468.28 419.737 C 470.41 422.308 473.179 424.275 476.308 425.441 Z" fill="#f1f1f1"/>
  <path d="M 414.788 259.948 L 187.916 259.948 C 184.144 259.944 181.087 256.887 181.083 253.114 L 181.083 176.579 C 181.087 172.807 184.144 169.75 187.916 169.746 L 414.788 169.746 C 418.56 169.75 421.617 172.807 421.621 176.579 L 421.621 253.114 C 421.617 256.887 418.56 259.944 414.788 259.948 Z" fill="#e5e5e5"/>
  <rect x="216.617" y="190.246" width="60.135" height="6.833" fill="#fff"/>
  <circle cx="356.02" cy="194.346" r="4.1" fill="#6c63ff"/>
  <circle cx="369.687" cy="194.346" r="4.1" fill="#6c63ff"/>
  <circle cx="383.353" cy="194.346" r="4.1" fill="#6c63ff"/>
  <path d="M 414.788 356.983 L 187.916 356.983 C 184.144 356.979 181.087 353.922 181.083 350.15 L 181.083 273.615 C 181.087 269.843 184.144 266.786 187.916 266.781 L 414.788 266.781 C 418.56 266.786 421.617 269.843 421.621 273.615 L 421.621 350.15 C 421.617 353.922 418.56 356.979 414.788 356.983 Z" fill="#e5e5e5"/>
  <rect x="216.617" y="287.282" width="60.135" height="6.833" fill="#fff"/>
  <circle cx="356.02" cy="291.382" r="4.1" fill="#6c63ff"/>
  <circle cx="369.687" cy="291.382" r="4.1" fill="#6c63ff"/>
  <circle cx="383.353" cy="291.382" r="4.1" fill="#6c63ff"/>
  <path d="M 414.788 454.019 L 187.916 454.019 C 184.144 454.014 181.087 450.957 181.083 447.185 L 181.083 370.65 C 181.087 366.878 184.144 363.821 187.916 363.817 L 414.788 363.817 C 418.56 363.821 421.617 366.878 421.621 370.65 L 421.621 447.185 C 421.617 450.957 418.56 454.014 414.788 454.019 Z" fill="#e5e5e5"/>
  <rect x="216.617" y="384.317" width="60.135" height="6.833" fill="#fff"/>
  <circle cx="356.02" cy="388.417" r="4.1" fill="#6c63ff"/>
  <circle cx="369.687" cy="388.417" r="4.1" fill="#6c63ff"/>
  <circle cx="383.353" cy="388.417" r="4.1" fill="#6c63ff"/>
  <path d="M 142.543 288.994 C 138.222 288.979 133.919 288.423 129.737 287.337 L 128.912 287.109 L 128.148 286.726 C 100.5 272.864 77.176 254.555 58.822 232.306 C 43.628 213.78 31.783 192.746 23.818 170.15 C 14.293 143.097 9.711 114.551 10.29 85.876 C 10.301 85.274 10.311 84.809 10.311 84.489 C 10.311 70.55 18.049 58.319 30.023 53.33 C 39.188 49.511 122.398 15.333 128.41 12.864 C 139.732 7.191 151.812 11.926 153.745 12.754 C 158.08 14.527 235.003 45.989 251.626 53.904 C 268.758 62.062 273.328 76.718 273.328 84.091 C 273.328 117.473 267.547 148.67 256.145 176.818 C 246.937 199.601 233.885 220.634 217.56 239.001 C 186.062 274.448 154.556 287.014 154.251 287.124 C 150.486 288.42 146.524 289.052 142.543 288.994 Z M 135.133 270.641 C 137.865 271.253 144.154 272.172 148.253 270.676 C 153.46 268.777 179.83 255.103 204.473 227.372 C 238.52 189.057 255.795 140.892 255.821 84.214 C 255.76 83.066 254.944 74.876 244.099 69.712 C 227.798 61.95 147.844 29.256 147.038 28.927 L 146.817 28.833 C 145.141 28.131 139.809 26.652 136.133 28.578 L 135.397 28.921 C 134.506 29.287 46.177 65.566 36.757 69.491 C 30.167 72.237 27.819 79.039 27.819 84.489 C 27.819 84.887 27.809 85.467 27.794 86.215 C 27.042 124.996 36.016 220.424 135.133 270.641 Z" fill="#3f3d56"/>
  <path d="M 132.071 20.824 C 132.071 20.824 42.94 57.431 33.39 61.41 C 23.84 65.389 19.065 74.939 19.065 84.489 C 19.065 94.039 11.903 218.651 132.071 278.9 C 132.071 278.9 142.978 281.918 151.252 278.9 C 159.527 275.883 264.575 224.95 264.575 84.091 C 264.575 84.091 264.575 69.766 247.862 61.808 C 231.15 53.85 150.35 20.824 150.35 20.824 C 150.35 20.824 140.427 16.447 132.071 20.824 Z" fill="#6c63ff"/>
  <path d="M 141.621 49.473 L 141.621 244.761 C 141.621 244.761 231.548 201.474 230.752 87.672 L 141.621 49.473 Z" opacity="0.2"/>
  <g transform="matrix(1.457171, 0, 0, 1.339286, -182.760223, 80.638969)" style="">
    <path style="fill: rgb(255, 182, 85);" d="M 237.407 38.902 C 235.942 37.399 234.213 36.125 232.291 35.142 C 231.594 34.786 230.872 34.468 230.127 34.191 C 229.755 34.053 229.377 33.925 228.994 33.808 C 227.078 33.223 225.034 32.906 222.913 32.906 C 222.913 32.906 222.913 32.906 222.912 32.906 C 222.7 32.906 222.489 32.909 222.278 32.915 C 221.857 32.928 221.439 32.953 221.025 32.99 C 219.99 33.083 218.978 33.252 217.995 33.49 C 217.602 33.585 217.214 33.691 216.831 33.808 C 216.64 33.867 216.449 33.928 216.26 33.992 C 215.504 34.247 214.77 34.545 214.061 34.882 C 213.884 34.966 213.708 35.053 213.533 35.142 C 212.092 35.879 210.759 36.78 209.565 37.818 C 209.166 38.165 208.784 38.526 208.418 38.902 C 208.12 39.207 207.833 39.522 207.558 39.846 C 207.282 40.17 207.018 40.503 206.766 40.844 C 206.598 41.071 206.435 41.302 206.278 41.536 C 205.414 42.826 204.717 44.224 204.215 45.702 C 204.124 45.97 204.039 46.242 203.961 46.516 C 203.883 46.79 203.811 47.066 203.747 47.345 C 203.455 48.599 203.302 49.901 203.302 51.236 C 203.302 53.762 203.851 56.171 204.845 58.363 C 204.969 58.637 205.1 58.908 205.238 59.175 C 205.445 59.576 205.667 59.968 205.904 60.352 C 206.061 60.608 206.225 60.86 206.395 61.108 C 206.566 61.356 206.742 61.6 206.924 61.839 C 207.289 62.319 207.678 62.781 208.09 63.224 C 208.501 63.668 208.934 64.093 209.389 64.498 C 210.07 65.105 210.798 65.667 211.567 66.179 C 211.952 66.435 212.347 66.678 212.751 66.908 C 214.099 67.674 215.553 68.293 217.087 68.74 C 217.394 68.829 217.704 68.912 218.017 68.987 C 218.33 69.063 218.646 69.131 218.965 69.192 C 220.24 69.437 221.56 69.565 222.912 69.565 C 222.912 69.565 222.912 69.565 222.912 69.565 C 233.725 69.565 242.523 61.342 242.523 51.236 C 242.523 46.49 240.583 42.161 237.407 38.902 Z"/>
    <path style="fill: rgb(119, 117, 127);" d="M 227.17 48.64 C 227.163 48.519 227.15 48.401 227.132 48.283 C 227.117 48.185 227.098 48.088 227.076 47.992 C 226.717 46.461 225.416 45.256 223.77 44.941 C 223.761 44.939 223.752 44.938 223.742 44.936 C 223.543 44.899 223.339 44.875 223.131 44.865 C 223.088 44.863 223.044 44.863 223.001 44.862 C 222.971 44.861 222.942 44.859 222.912 44.859 C 222.912 44.859 222.912 44.859 222.912 44.859 C 220.561 44.859 218.649 46.647 218.649 48.844 C 218.649 50.145 219.319 51.302 220.354 52.03 L 220.354 55.22 C 220.354 56.54 221.499 57.611 222.912 57.611 C 222.912 57.611 222.912 57.611 222.912 57.611 C 222.974 57.611 223.035 57.606 223.096 57.602 C 223.121 57.601 223.148 57.601 223.173 57.599 C 223.21 57.595 223.246 57.588 223.282 57.583 C 224.519 57.415 225.47 56.423 225.47 55.22 L 225.47 52.03 C 226.504 51.303 227.175 50.145 227.175 48.845 C 227.175 48.776 227.174 48.707 227.17 48.64 Z"/>
    <path style="fill: rgb(195, 195, 199);" d="M 213.533 35.142 L 213.533 30.515 C 213.533 25.681 217.741 21.749 222.912 21.749 C 228.084 21.749 232.291 25.681 232.291 30.515 L 232.291 35.142 C 234.213 36.124 235.942 37.399 237.407 38.902 L 237.407 30.515 C 237.407 23.045 230.905 16.967 222.912 16.967 C 214.92 16.967 208.417 23.045 208.417 30.515 L 208.417 38.902 C 209.883 37.399 211.611 36.124 213.533 35.142 Z"/>
    <path style="fill: rgb(87, 87, 92);" d="M 222.912 44.86 C 222.912 44.86 222.912 44.86 222.912 44.86 C 220.561 44.86 218.649 46.647 218.649 48.845 C 218.649 50.145 219.32 51.303 220.354 52.03 L 220.354 55.22 C 220.354 56.54 221.499 57.611 222.912 57.611 C 222.912 57.611 222.912 57.611 222.912 57.611 L 222.912 44.86 Z"/>
    <g style="" transform="matrix(0.10991, 0, 0, 0.10273, 194.775131, 16.967138)">
      <path style="fill:#F1CB30;" d="M321.645,167.664c-3.389-1.345-6.827-2.589-10.311-3.73 C314.816,165.075,318.256,166.319,321.645,167.664z"/>
      <path style="fill:#F1CB30;" d="M256.002,155.152L256.002,155.152c19.305,0,37.904,3.083,55.33,8.783 C293.905,158.234,275.305,155.152,256.002,155.152z"/>
      <path style="fill:#F1CB30;" d="M263.55,272.258c0.087,0.017,0.172,0.029,0.258,0.047 C263.722,272.288,263.637,272.275,263.55,272.258z"/>
      <path style="fill:#F1CB30;" d="M258.38,395.515c-0.233,0.023-0.475,0.02-0.709,0.036 C257.907,395.535,258.147,395.54,258.38,395.515z"/>
      <path style="fill:#F1CB30;" d="M293.885,302.005c0.205,0.934,0.375,1.879,0.51,2.838C294.26,303.884,294.09,302.94,293.885,302.005 z"/>
      <path style="fill:#F1CB30;" d="M259.367,395.365c11.253-1.635,19.906-11.295,19.906-23.001 C279.273,384.07,270.62,393.73,259.367,395.365z"/>
      <path style="fill:#F1CB30;" d="M256.811,271.535c0.394,0.008,0.791,0.009,1.184,0.031 C257.601,271.546,257.204,271.545,256.811,271.535z"/>
    </g>
    <path style="fill: rgb(238, 135, 0);" d="M 222.912 69.565 C 222.912 69.565 222.912 69.565 222.912 69.565 L 222.912 57.611 C 222.912 57.611 222.912 57.611 222.912 57.611 C 221.499 57.611 220.354 56.54 220.354 55.22 L 220.354 52.03 C 219.32 51.302 218.649 50.145 218.649 48.844 C 218.649 46.647 220.561 44.86 222.912 44.86 C 222.912 44.86 222.912 44.86 222.912 44.86 L 222.912 32.906 C 222.912 32.906 222.912 32.906 222.912 32.906 C 219.517 32.906 216.321 33.717 213.533 35.142 C 211.611 36.125 209.883 37.399 208.417 38.902 C 205.241 42.161 203.301 46.49 203.301 51.236 C 203.301 61.342 212.099 69.565 222.912 69.565 Z"/>
    <polygon style="fill: rgb(230, 150, 41);" points="222.912 32.906 222.912 32.906 222.912 32.906"/>
    <path style="fill: rgb(169, 168, 174);" d="M 208.417 30.515 L 208.417 38.902 C 209.883 37.399 211.611 36.124 213.533 35.142 L 213.533 30.515 C 213.533 25.681 217.741 21.749 222.912 21.749 L 222.912 16.967 C 214.92 16.967 208.417 23.045 208.417 30.515 Z"/>
    <g style="" transform="matrix(0.10991, 0, 0, 0.10273, 194.775131, 16.967138)"/>
    <g style="" transform="matrix(0.10991, 0, 0, 0.10273, 194.775131, 16.967138)"/>
    <g style="" transform="matrix(0.10991, 0, 0, 0.10273, 194.775131, 16.967138)"/>
    <g style="" transform="matrix(0.10991, 0, 0, 0.10273, 194.775131, 16.967138)"/>
    <g style="" transform="matrix(0.10991, 0, 0, 0.10273, 194.775131, 16.967138)"/>
    <g style="" transform="matrix(0.10991, 0, 0, 0.10273, 194.775131, 16.967138)"/>
    <g style="" transform="matrix(0.10991, 0, 0, 0.10273, 194.775131, 16.967138)"/>
    <g style="" transform="matrix(0.10991, 0, 0, 0.10273, 194.775131, 16.967138)"/>
    <g style="" transform="matrix(0.10991, 0, 0, 0.10273, 194.775131, 16.967138)"/>
    <g style="" transform="matrix(0.10991, 0, 0, 0.10273, 194.775131, 16.967138)"/>
    <g style="" transform="matrix(0.10991, 0, 0, 0.10273, 194.775131, 16.967138)"/>
    <g style="" transform="matrix(0.10991, 0, 0, 0.10273, 194.775131, 16.967138)"/>
    <g style="" transform="matrix(0.10991, 0, 0, 0.10273, 194.775131, 16.967138)"/>
    <g style="" transform="matrix(0.10991, 0, 0, 0.10273, 194.775131, 16.967138)"/>
    <g style="" transform="matrix(0.10991, 0, 0, 0.10273, 194.775131, 16.967138)"/>
  </g>
</svg>